<?xml version="1.0" encoding="utf-8"?>
<svg width="16" height="16" fill="currentColor" class="bi bi-arrow-left-right" viewBox="0 0 16 16" xmlns="http://www.w3.org/2000/svg">
  <rect width="16" height="16" style="fill: rgb(255, 222, 82);" rx="3.5" ry="3.5"/>
  <path fill-rule="evenodd" d="M 2.75 10.625 C 2.75 10.832 2.918 11 3.125 11 L 11.969 11 L 9.609 13.36 C 9.404 13.564 9.498 13.913 9.777 13.988 C 9.907 14.022 10.045 13.985 10.14 13.891 L 13.14 10.891 C 13.287 10.744 13.287 10.506 13.14 10.36 L 10.14 7.36 C 9.935 7.156 9.586 7.249 9.512 7.528 C 9.477 7.658 9.514 7.796 9.609 7.891 L 11.969 10.25 L 3.125 10.25 C 2.918 10.25 2.75 10.418 2.75 10.625 Z M 13.249 5.376 C 13.249 5.583 13.081 5.751 12.874 5.751 L 4.03 5.751 L 6.39 8.11 C 6.594 8.314 6.501 8.663 6.222 8.738 C 6.092 8.773 5.954 8.736 5.859 8.641 L 2.859 5.641 C 2.712 5.495 2.712 5.257 2.859 5.11 L 5.859 2.11 C 6.063 1.906 6.412 1.999 6.487 2.279 C 6.522 2.408 6.485 2.546 6.39 2.641 L 4.03 5.001 L 12.874 5.001 C 13.081 5.001 13.249 5.169 13.249 5.376 Z"/>
</svg>