<?xml version="1.0" encoding="utf-8"?>
<svg width="16" height="16" fill="currentColor" class="bi bi-arrow-bar-down" viewBox="0 0 16 16" xmlns="http://www.w3.org/2000/svg">
  <rect width="16" height="16" style="fill: rgb(67, 201, 247);"/>
  <path fill-rule="evenodd" d="M 2 3.714 C 2 3.477 2.192 3.285 2.429 3.285 L 13.571 3.285 C 13.901 3.285 14.108 3.642 13.943 3.928 C 13.866 4.06 13.725 4.142 13.571 4.142 L 2.429 4.142 C 2.192 4.142 2 3.95 2 3.714 Z M 8 5.856 C 8.237 5.856 8.429 6.048 8.429 6.285 L 8.429 11.25 L 10.268 9.41 C 10.502 9.177 10.9 9.283 10.986 9.603 C 11.026 9.751 10.983 9.909 10.875 10.017 L 8.303 12.588 C 8.136 12.756 7.864 12.756 7.697 12.588 L 5.125 10.017 C 4.892 9.783 4.998 9.385 5.318 9.299 C 5.466 9.259 5.624 9.302 5.732 9.41 L 7.571 11.25 L 7.571 6.285 C 7.571 6.048 7.763 5.856 8 5.856 Z" style="fill: rgb(255, 255, 255);"/>
</svg>