<?xml version="1.0" encoding="utf-8"?>
<svg width="16" height="16" fill="currentColor" class="bi bi-arrow-bar-up" viewBox="0 0 16 16" xmlns="http://www.w3.org/2000/svg">
  <rect width="16" height="16" style="fill: rgb(67, 201, 247);" rx="3.5" ry="3.5"/>
  <path fill-rule="evenodd" d="M 8 10.143 C 8.237 10.143 8.429 9.951 8.429 9.714 L 8.429 4.749 L 10.268 6.589 C 10.502 6.823 10.9 6.716 10.986 6.397 C 11.026 6.249 10.983 6.091 10.875 5.982 L 8.303 3.411 C 8.136 3.243 7.864 3.243 7.697 3.411 L 5.125 5.982 C 4.892 6.216 4.998 6.615 5.318 6.7 C 5.466 6.74 5.624 6.698 5.732 6.589 L 7.571 4.749 L 7.571 9.714 C 7.571 9.951 7.763 10.143 8 10.143 Z M 2 12.286 C 2 12.049 2.192 11.857 2.429 11.857 L 13.571 11.857 C 13.901 11.857 14.108 12.214 13.943 12.5 C 13.866 12.633 13.725 12.714 13.571 12.714 L 2.429 12.714 C 2.192 12.714 2 12.523 2 12.286 Z" style="fill: rgb(0, 0, 0);"/>
</svg>