<?xml version="1.0" encoding="utf-8"?>
<svg width="16" height="16" fill="currentColor" class="bi bi-book" viewBox="0 0 16 16" xmlns="http://www.w3.org/2000/svg">
  <rect width="16" height="16" style="fill: rgb(255, 222, 82);"/>
  <path d="M 2.75 4.535 C 3.414 4.257 4.366 3.958 5.291 3.865 C 6.289 3.765 7.135 3.912 7.625 4.429 L 7.625 11.739 C 6.924 11.341 6.035 11.286 5.215 11.369 C 4.33 11.459 3.438 11.715 2.75 11.977 L 2.75 4.535 Z M 8.375 4.429 C 8.866 3.912 9.712 3.765 10.709 3.865 C 11.635 3.958 12.586 4.257 13.25 4.535 L 13.25 11.977 C 12.562 11.715 11.67 11.458 10.785 11.37 C 9.964 11.286 9.076 11.34 8.375 11.739 L 8.375 4.429 Z M 8 3.751 C 7.261 3.116 6.19 3.021 5.215 3.119 C 4.08 3.234 2.934 3.623 2.22 3.948 C 2.086 4.009 2 4.142 2 4.289 L 2 12.539 C 2 12.812 2.282 12.993 2.53 12.88 C 3.192 12.58 4.258 12.219 5.29 12.115 C 6.347 12.009 7.233 12.18 7.708 12.773 C 7.858 12.96 8.142 12.96 8.292 12.773 C 8.767 12.18 9.653 12.009 10.709 12.115 C 11.743 12.219 12.809 12.58 13.47 12.88 C 13.718 12.993 14 12.812 14 12.539 L 14 4.289 C 14 4.142 13.914 4.009 13.78 3.948 C 13.066 3.623 11.92 3.234 10.785 3.119 C 9.81 3.021 8.739 3.116 8 3.751 Z"/>
</svg>