<?xml version="1.0" encoding="utf-8"?>
<svg width="16" height="16" fill="currentColor" class="bi bi-chat-left-quote" viewBox="0 0 16 16" xmlns="http://www.w3.org/2000/svg">
  <rect width="16" height="16" style="fill: rgb(255, 119, 79);"/>
  <path d="M 12.5 3.015 C 12.914 3.015 13.25 3.351 13.25 3.765 L 13.25 9.765 C 13.25 10.179 12.914 10.515 12.5 10.515 L 5.311 10.515 C 4.913 10.515 4.531 10.673 4.25 10.955 L 2.75 12.455 L 2.75 3.765 C 2.75 3.351 3.086 3.015 3.5 3.015 L 12.5 3.015 Z M 3.5 2.265 C 2.672 2.265 2 2.937 2 3.765 L 2 13.36 C 2 13.648 2.313 13.829 2.563 13.684 C 2.591 13.668 2.617 13.648 2.641 13.624 L 4.78 11.485 C 4.921 11.344 5.112 11.265 5.311 11.265 L 12.5 11.265 C 13.328 11.265 14 10.593 14 9.765 L 14 3.765 C 14 2.937 13.328 2.265 12.5 2.265 L 3.5 2.265 Z"/>
  <path d="M 7.3 5.835 C 6.78 5.026 5.58 5.083 5.139 5.937 C 5.047 6.116 4.999 6.315 5 6.516 C 5.001 7.478 6.043 8.079 6.876 7.598 C 6.891 7.589 6.906 7.58 6.921 7.571 C 6.823 7.862 6.64 8.174 6.338 8.486 C 6.171 8.659 6.253 8.948 6.487 9.007 C 6.596 9.034 6.71 9.001 6.788 8.921 C 7.903 7.766 7.758 6.51 7.299 5.837 L 7.3 5.835 Z M 10.299 5.835 C 9.78 5.026 8.58 5.083 8.139 5.937 C 8.047 6.116 7.999 6.315 8 6.516 C 8.001 7.478 9.043 8.079 9.876 7.598 C 9.891 7.589 9.906 7.58 9.921 7.571 C 9.823 7.862 9.64 8.174 9.338 8.486 C 9.171 8.659 9.253 8.948 9.487 9.007 C 9.596 9.034 9.71 9.001 9.788 8.921 C 10.903 7.766 10.758 6.51 10.3 5.837 L 10.299 5.835 Z"/>
</svg>