<?xml version="1.0" encoding="utf-8"?>
<svg width="16" height="16" fill="currentColor" class="bi bi-code-square" viewBox="0 0 16 16" xmlns="http://www.w3.org/2000/svg">
  <rect width="16" height="16" style="fill: rgb(192, 82, 255);" rx="3.5" ry="3.5"/>
  <path d="M 12.5 2.75 C 12.914 2.75 13.25 3.086 13.25 3.5 L 13.25 12.5 C 13.25 12.914 12.914 13.25 12.5 13.25 L 3.5 13.25 C 3.086 13.25 2.75 12.914 2.75 12.5 L 2.75 3.5 C 2.75 3.086 3.086 2.75 3.5 2.75 L 12.5 2.75 Z M 3.5 2 C 2.672 2 2 2.672 2 3.5 L 2 12.5 C 2 13.328 2.672 14 3.5 14 L 12.5 14 C 13.328 14 14 13.328 14 12.5 L 14 3.5 C 14 2.672 13.328 2 12.5 2 L 3.5 2 Z"/>
  <path d="M 6.934 4.882 C 7.116 5.063 7.116 5.358 6.934 5.54 L 4.472 8 L 6.934 10.461 C 7.187 10.714 7.071 11.147 6.725 11.239 C 6.564 11.283 6.393 11.237 6.275 11.119 L 3.486 8.33 C 3.304 8.148 3.304 7.853 3.486 7.671 L 6.275 4.882 C 6.457 4.7 6.752 4.7 6.934 4.882 Z M 9.065 4.882 C 8.883 5.063 8.883 5.358 9.065 5.54 L 11.526 8 L 9.065 10.461 C 8.811 10.714 8.927 11.147 9.273 11.239 C 9.434 11.283 9.605 11.237 9.723 11.119 L 12.513 8.33 C 12.695 8.148 12.695 7.853 12.513 7.671 L 9.723 4.882 C 9.541 4.7 9.246 4.7 9.065 4.882 Z"/>
</svg>