<?xml version="1.0" encoding="utf-8"?>
<svg width="16" height="16" fill="currentColor" class="bi bi-emoji-smile" viewBox="0 0 16 16" xmlns="http://www.w3.org/2000/svg">
  <rect width="16" height="16" style="fill: rgb(255, 119, 79);" rx="3.5" ry="3.5"/>
  <path d="M 8 13.25 C 3.959 13.25 1.433 8.875 3.453 5.375 C 4.391 3.751 6.124 2.75 8 2.75 C 12.041 2.75 14.567 7.125 12.547 10.625 C 11.609 12.249 9.876 13.25 8 13.25 Z M 8 14 C 12.619 14 15.506 9 13.196 5 C 12.124 3.144 10.144 2 8 2 C 3.381 2 0.494 7 2.804 11 C 3.876 12.856 5.856 14 8 14 Z"/>
  <path d="M 5.214 9.175 C 5.393 9.072 5.622 9.133 5.726 9.313 C 6.195 10.125 7.062 10.626 8 10.625 C 8.938 10.626 9.805 10.125 10.274 9.313 C 10.417 9.062 10.778 9.059 10.924 9.308 C 10.992 9.425 10.992 9.57 10.924 9.688 C 10.321 10.732 9.206 11.376 8 11.375 C 6.794 11.376 5.679 10.732 5.077 9.688 C 4.973 9.508 5.034 9.279 5.214 9.175 Z M 7.25 6.875 C 7.25 7.496 6.914 8 6.5 8 C 6.086 8 5.75 7.496 5.75 6.875 C 5.75 6.254 6.086 5.75 6.5 5.75 C 6.914 5.75 7.25 6.254 7.25 6.875 Z M 10.25 6.875 C 10.25 7.496 9.914 8 9.5 8 C 9.086 8 8.75 7.496 8.75 6.875 C 8.75 6.254 9.086 5.75 9.5 5.75 C 9.914 5.75 10.25 6.254 10.25 6.875 Z"/>
</svg>