<?xml version="1.0" encoding="utf-8"?>
<svg width="16" height="16" fill="currentColor" class="bi bi-flag" viewBox="0 0 16 16" xmlns="http://www.w3.org/2000/svg">
  <rect width="16" height="16" style="fill: rgb(200, 242, 99);" rx="3.5" ry="3.5"/>
  <path d="M 12.709 2.064 C 12.812 2.133 12.875 2.25 12.875 2.375 L 12.875 8 C 12.875 8.153 12.782 8.291 12.64 8.348 L 12.5 8 L 12.64 8.348 L 12.637 8.349 L 12.633 8.351 L 12.616 8.358 C 12.517 8.397 12.418 8.434 12.318 8.47 C 12.12 8.542 11.845 8.638 11.532 8.733 C 10.92 8.922 10.123 9.125 9.5 9.125 C 8.865 9.125 8.339 8.915 7.882 8.731 L 7.861 8.724 C 7.385 8.533 6.98 8.375 6.5 8.375 C 5.975 8.375 5.272 8.547 4.672 8.733 C 4.404 8.816 4.138 8.908 3.875 9.007 L 3.875 13.625 C 3.875 13.914 3.563 14.094 3.313 13.95 C 3.196 13.883 3.125 13.759 3.125 13.625 L 3.125 2.375 C 3.125 2.086 3.438 1.906 3.688 2.05 C 3.804 2.117 3.875 2.241 3.875 2.375 L 3.875 2.586 C 4.045 2.527 4.247 2.459 4.468 2.391 C 5.08 2.204 5.877 2 6.5 2 C 7.13 2 7.643 2.208 8.091 2.389 L 8.123 2.403 C 8.589 2.591 8.996 2.75 9.5 2.75 C 10.025 2.75 10.729 2.577 11.328 2.392 C 11.669 2.286 12.007 2.167 12.34 2.035 L 12.354 2.03 L 12.357 2.028 L 12.358 2.028 M 12.125 2.916 C 11.96 2.974 11.765 3.041 11.551 3.107 C 10.943 3.296 10.147 3.499 9.5 3.499 C 8.836 3.499 8.306 3.285 7.848 3.099 L 7.842 3.096 C 7.372 2.907 6.979 2.75 6.5 2.75 C 5.998 2.75 5.296 2.922 4.689 3.108 C 4.415 3.193 4.144 3.285 3.875 3.384 L 3.875 8.209 C 4.04 8.15 4.235 8.083 4.45 8.017 C 5.057 7.827 5.854 7.625 6.5 7.625 C 7.135 7.625 7.661 7.835 8.118 8.019 L 8.14 8.026 C 8.615 8.217 9.02 8.375 9.5 8.375 C 10.001 8.375 10.705 8.203 11.311 8.017 C 11.585 7.932 11.856 7.84 12.125 7.741 L 12.125 2.916 Z"/>
</svg>