<?xml version="1.0" encoding="utf-8"?>
<svg width="16" height="16" fill="currentColor" class="bi bi-lightbulb" viewBox="0 0 16 16" xmlns="http://www.w3.org/2000/svg" xmlns:bx="https://boxy-svg.com">
  <path style="fill: rgb(255, 222, 82);" d="M 1.518 0 H 12.5 A 3.5 3.5 0 0 1 16 3.5 V 12.5 A 3.5 3.5 0 0 1 12.5 16 H 3.5 A 3.5 3.5 0 0 1 0 12.5 V 1.518 A 1.518 1.518 0 0 1 1.518 0 Z" bx:shape="rect 0 0 16 16 1.518 3.5 3.5 3.5 1@b591e70e"/>
  <path d="M 3.5 6.503 C 3.5 3.039 7.25 0.874 10.25 2.606 C 12.838 4.1 13.278 7.656 11.13 9.735 C 10.978 9.882 10.861 10.035 10.791 10.2 L 10.219 11.526 C 10.16 11.664 10.025 11.753 9.875 11.753 C 10.164 11.753 10.344 12.065 10.2 12.315 C 10.133 12.431 10.009 12.503 9.875 12.503 C 10.164 12.503 10.344 12.815 10.2 13.065 C 10.133 13.181 10.009 13.253 9.875 13.253 L 9.707 13.588 C 9.58 13.842 9.32 14.003 9.036 14.003 L 6.963 14.003 C 6.679 14.003 6.42 13.842 6.293 13.588 L 6.125 13.253 C 5.836 13.253 5.656 12.94 5.8 12.69 C 5.867 12.574 5.991 12.503 6.125 12.503 C 5.836 12.503 5.656 12.19 5.8 11.94 C 5.867 11.824 5.991 11.753 6.125 11.753 C 5.975 11.753 5.839 11.664 5.78 11.526 L 5.209 10.199 C 5.128 10.024 5.012 9.866 4.869 9.735 C 3.993 8.889 3.499 7.722 3.5 6.503 Z M 8 2.753 C 5.113 2.752 3.308 5.877 4.751 8.377 C 4.925 8.679 5.141 8.955 5.391 9.197 C 5.588 9.387 5.776 9.62 5.898 9.903 L 6.372 11.003 L 9.629 11.003 L 10.103 9.903 C 10.224 9.62 10.413 9.387 10.61 9.197 C 12.684 7.189 11.806 3.689 9.03 2.897 C 8.695 2.801 8.348 2.753 8 2.753 Z"/>
</svg>