<?xml version="1.0" encoding="utf-8"?>
<svg width="16" height="16" fill="currentColor" class="bi bi-list-ul" viewBox="0 0 16 16" xmlns="http://www.w3.org/2000/svg">
  <rect width="16" height="16" style="fill: rgb(255, 222, 82);"/>
  <path fill-rule="evenodd" d="M 5.429 11.428 C 5.429 11.192 5.62 11 5.857 11 L 13.571 11 C 13.901 11 14.108 11.357 13.943 11.643 C 13.866 11.775 13.725 11.857 13.571 11.857 L 5.857 11.857 C 5.62 11.857 5.429 11.665 5.429 11.428 Z M 5.429 8 C 5.429 7.763 5.62 7.571 5.857 7.571 L 13.571 7.571 C 13.901 7.571 14.108 7.928 13.943 8.214 C 13.866 8.347 13.725 8.428 13.571 8.428 L 5.857 8.428 C 5.62 8.428 5.429 8.236 5.429 8 Z M 5.429 4.571 C 5.429 4.334 5.62 4.143 5.857 4.143 L 13.571 4.143 C 13.901 4.143 14.108 4.5 13.943 4.785 C 13.866 4.918 13.725 5 13.571 5 L 5.857 5 C 5.62 5 5.429 4.808 5.429 4.571 Z M 2.857 5.428 C 3.517 5.428 3.929 4.714 3.599 4.143 C 3.446 3.877 3.163 3.714 2.857 3.714 C 2.197 3.714 1.785 4.428 2.115 5 C 2.268 5.265 2.551 5.428 2.857 5.428 Z M 2.857 8.857 C 3.517 8.857 3.929 8.143 3.599 7.571 C 3.446 7.306 3.163 7.143 2.857 7.143 C 2.197 7.143 1.785 7.857 2.115 8.428 C 2.268 8.693 2.551 8.857 2.857 8.857 Z M 2.857 12.285 C 3.517 12.285 3.929 11.571 3.599 11 C 3.446 10.735 3.163 10.571 2.857 10.571 C 2.197 10.571 1.785 11.285 2.115 11.857 C 2.268 12.122 2.551 12.285 2.857 12.285 Z"/>
</svg>