<?xml version="1.0" encoding="utf-8"?>
<svg width="752pt" height="752pt" version="1.1" viewBox="0 0 752 752" xmlns="http://www.w3.org/2000/svg">
  <rect x="76" y="88.518" width="600" height="600" style="fill: none;"/>
  <rect width="752" height="752" style="fill: rgb(230, 229, 230);"/>
  <g transform="matrix(1, 0, 0, 1, 3.470865, 45.726948)">
    <path d="m316.8 258.64 108.92-62.898c0.074219 0 0.074219-0.074219 0.14844-0.074219-4.293-8.582-9.9141-16.352-16.648-23.086-16.059-16.055-38.258-25.973-62.824-25.973-48.984 0-88.723 39.664-88.797 88.648v0.14844 125.8l58.977 34.188z" style="paint-order: fill; fill-rule: nonzero; fill: rgb(30, 30, 30);"/>
    <path d="m195.05 408.23 108.94 62.898 59.094-33.98-118.31-68.566-0.007812-125.78c0.035156-0.066406-0.03125-0.10547 0.007812-0.16406-9.582-0.57812-19.121 0.40625-28.32 2.8789-21.934 5.875-41.625 20.141-53.906 41.422-24.492 42.422-10.012 96.668 32.375 121.22 0.066406 0.03125 0.066406 0.03125 0.13281 0.066406z" style="paint-order: fill; fill-rule: nonzero; fill: rgb(30, 30, 30);"/>
    <path d="m422.5 417.77-118.54 68.18-108.93-62.883c-0.035156-0.066406-0.10547-0.03125-0.14062-0.089844-5.2891 8.0078-9.207 16.77-11.668 25.965-5.875 21.934-3.3672 46.113 8.918 67.398 24.492 42.422 78.711 57.008 121.17 32.574 0.066406-0.035156 0.066406-0.035156 0.125-0.074218l108.94-62.898z" style="paint-order: fill; fill-rule: nonzero; fill: rgb(30, 30, 30);"/>
    <path d="m435.2 493.36-108.92 62.898c-0.074219 0-0.074219 0.074219-0.14844 0.074219 4.293 8.582 9.9141 16.352 16.648 23.086 16.059 16.059 38.258 25.973 62.824 25.973 48.984 0 88.723-39.664 88.797-88.648v-0.14844-125.79l-58.977-34.188z" style="paint-order: fill; fill-rule: nonzero; fill: rgb(30, 30, 30);"/>
    <path d="m557.09 343.84c-0.066407-0.035156-0.066407-0.035156-0.125-0.074219l-108.94-62.898-59.094 33.98 118.31 68.566v125.78c-0.035157 0.066407 0.03125 0.10547-0.007813 0.16406 9.582 0.57812 19.121-0.40625 28.32-2.8789 21.934-5.875 41.625-20.141 53.906-41.422 24.492-42.418 10.012-96.664-32.375-121.21z" style="paint-order: fill; fill-rule: nonzero; fill: rgb(30, 30, 30);"/>
    <path d="m556.97 328.94c0.035156 0.066406 0.10547 0.03125 0.14062 0.089844 5.2891-8.0078 9.207-16.762 11.668-25.965 5.875-21.934 3.3672-46.113-8.918-67.398-24.492-42.422-78.711-57.008-121.17-32.574-0.066406 0.035156-0.066406 0.035156-0.125 0.074218l-108.94 62.898-0.11719 68.168 118.54-68.18z" style="paint-order: fill; fill-rule: nonzero; fill: rgb(30, 30, 30);"/>
  </g>
  <rect x="257.514" y="291.182" width="67.874" height="20.766" style="fill: rgb(230, 229, 230);"/>
  <path d="M 179.512 248.777 C 179.512 241.524 183.147 234.511 189.662 228.176 C 196.159 221.858 205.451 216.177 217.012 211.234 L 217.012 188.726 C 217.042 162.72 229.711 139.077 250.14 122.052 C 270.562 105.033 298.856 94.477 330.012 94.477 C 361.168 94.477 389.462 105.033 409.883 122.052 C 430.313 139.077 442.982 162.72 443.012 188.726 L 443.012 211.234 C 454.573 216.177 463.865 221.858 470.362 228.176 C 476.876 234.511 480.512 241.524 480.512 248.777 C 480.512 256.666 476.206 264.261 468.555 271.045 C 460.923 277.811 449.858 283.916 436.251 289.019 C 409.061 299.216 371.471 305.528 330.012 305.528 C 288.552 305.528 250.962 299.216 223.772 289.019 C 210.166 283.916 199.101 277.811 191.469 271.045 C 183.817 264.261 179.512 256.666 179.512 248.777 Z M 192.132 270.296 C 199.682 276.99 210.585 283.005 224.123 288.083 C 251.224 298.246 288.634 304.528 330.012 304.528 C 371.389 304.528 408.799 298.246 435.9 288.083 C 449.439 283.005 460.342 276.99 467.892 270.296 C 475.422 263.62 479.512 256.419 479.512 248.777 C 479.512 241.755 476.066 235.118 469.665 228.893 C 463.246 222.651 453.952 216.963 442.317 212.024 L 442.012 211.895 L 442.012 188.726 C 442.042 162.957 429.529 139.726 409.243 122.82 C 388.949 105.908 360.993 95.477 330.012 95.477 C 299.03 95.477 271.074 105.908 250.78 122.82 C 230.494 139.726 217.982 162.957 218.012 188.726 L 218.012 211.895 L 217.707 212.024 C 206.071 216.963 196.777 222.651 190.359 228.893 C 183.958 235.118 180.512 241.755 180.512 248.777 C 180.512 256.419 184.602 263.62 192.132 270.296 Z" style="fill: none;" transform="matrix(0.87462, -0.48481, 0.48481, 0.87462, -55.586145, 185.06947)"/>
  <path d="M 199.544 252.836 C 199.517 246.843 202.446 241.034 207.772 235.808 C 213.082 230.598 220.674 225.932 230.136 221.865 L 229.965 203.394 C 229.797 181.96 240.064 162.455 256.77 148.426 C 273.467 134.404 296.716 125.701 322.386 125.701 C 348.056 125.701 371.462 134.403 388.417 148.424 C 405.381 162.451 416.005 181.952 416.233 203.384 L 416.404 221.861 C 425.944 225.929 433.624 230.596 439.028 235.805 C 444.45 241.029 447.485 246.835 447.568 252.826 C 447.595 259.344 444.121 265.635 437.861 271.23 C 431.62 276.807 422.54 281.843 411.369 286.046 C 389.049 294.444 358.129 299.644 323.984 299.644 C 289.838 299.644 258.823 294.445 236.349 286.046 C 225.1 281.843 215.929 276.809 209.587 271.232 C 203.225 265.639 199.636 259.352 199.544 252.836 Z M 210.247 270.481 C 216.508 275.986 225.518 280.932 236.699 285.11 C 259.083 293.474 289.92 298.644 323.984 298.644 C 358.047 298.644 388.787 293.475 411.016 285.11 C 422.12 280.932 431.036 275.988 437.194 270.484 C 443.333 264.998 446.659 259.105 446.568 252.836 C 446.542 247.074 443.643 241.641 438.334 236.525 C 433.008 231.392 425.326 226.717 415.712 222.654 L 415.41 222.526 L 415.233 203.394 C 415.067 182.197 404.6 163.104 387.78 149.194 C 370.951 135.278 347.881 126.701 322.386 126.701 C 296.891 126.701 273.983 135.277 257.413 149.192 C 240.851 163.1 230.74 182.189 230.965 203.384 L 231.142 222.522 L 230.835 222.653 C 221.297 226.716 213.702 231.39 208.473 236.522 C 203.26 241.636 200.462 247.066 200.544 252.826 C 200.57 259.098 204.006 264.994 210.247 270.481 Z" style="fill: none;" transform="matrix(0.87906, -0.476712, 0.476712, 0.87906, -62.252521, 179.963668)"/>
  <rect x="226.616" y="206.817" width="248.444" height="93.807" style="fill: rgb(230, 229, 230);" transform="matrix(0.87462, -0.48481, 0.48481, 0.87462, -75.567337, 158.881836)"/>
  <rect x="226.616" y="206.817" width="248.444" height="93.807" style="fill: rgb(230, 229, 230);" transform="matrix(0.87462, -0.48481, 0.48481, 0.87462, -20.431959, 158.881836)"/>
  <rect x="226.616" y="206.817" width="248.444" height="93.807" style="fill: rgb(230, 229, 230);" transform="matrix(0.87462, -0.48481, 0.48481, 0.87462, -40.955544, 158.881836)"/>
  <path d="M 225.581 227.443 C 226.253 252.609 281.845 273.016 349.74 273.016 C 417.632 273.016 472.135 252.609 471.463 227.443 C 471.153 215.877 459.264 205.323 439.922 197.294 L 439.427 178.79 C 438.306 136.841 396.121 102.834 345.192 102.834 C 294.264 102.834 253.896 136.841 255.016 178.79 L 255.511 197.294 C 236.597 205.323 225.272 215.877 225.581 227.443 Z" style="fill: rgb(50, 14, 78);" transform="matrix(0.866061, -0.499939, 0.499939, 0.866061, -47.270216, 199.410221)"/>
</svg>