<?xml version="1.0" encoding="utf-8"?>
<svg width="752pt" height="752pt" version="1.1" viewBox="0 0 752 752" xmlns="http://www.w3.org/2000/svg">
  <g>
    <path d="m316.8 258.64 108.92-62.898c0.074219 0 0.074219-0.074219 0.14844-0.074219-4.293-8.582-9.9141-16.352-16.648-23.086-16.059-16.055-38.258-25.973-62.824-25.973-48.984 0-88.723 39.664-88.797 88.648v0.14844 125.8l58.977 34.188z"/>
    <path d="m195.05 408.23 108.94 62.898 59.094-33.98-118.31-68.566-0.007812-125.78c0.035156-0.066406-0.03125-0.10547 0.007812-0.16406-9.582-0.57812-19.121 0.40625-28.32 2.8789-21.934 5.875-41.625 20.141-53.906 41.422-24.492 42.422-10.012 96.668 32.375 121.22 0.066406 0.03125 0.066406 0.03125 0.13281 0.066406z"/>
    <path d="m422.5 417.77-118.54 68.18-108.93-62.883c-0.035156-0.066406-0.10547-0.03125-0.14062-0.089844-5.2891 8.0078-9.207 16.77-11.668 25.965-5.875 21.934-3.3672 46.113 8.918 67.398 24.492 42.422 78.711 57.008 121.17 32.574 0.066406-0.035156 0.066406-0.035156 0.125-0.074218l108.94-62.898z"/>
    <path d="m435.2 493.36-108.92 62.898c-0.074219 0-0.074219 0.074219-0.14844 0.074219 4.293 8.582 9.9141 16.352 16.648 23.086 16.059 16.059 38.258 25.973 62.824 25.973 48.984 0 88.723-39.664 88.797-88.648v-0.14844-125.79l-58.977-34.188z"/>
    <path d="m557.09 343.84c-0.066407-0.035156-0.066407-0.035156-0.125-0.074219l-108.94-62.898-59.094 33.98 118.31 68.566v125.78c-0.035157 0.066407 0.03125 0.10547-0.007813 0.16406 9.582 0.57812 19.121-0.40625 28.32-2.8789 21.934-5.875 41.625-20.141 53.906-41.422 24.492-42.418 10.012-96.664-32.375-121.21z"/>
    <path d="m556.97 328.94c0.035156 0.066406 0.10547 0.03125 0.14062 0.089844 5.2891-8.0078 9.207-16.762 11.668-25.965 5.875-21.934 3.3672-46.113-8.918-67.398-24.492-42.422-78.711-57.008-121.17-32.574-0.066406 0.035156-0.066406 0.035156-0.125 0.074218l-108.94 62.898-0.11719 68.168 118.54-68.18z"/>
  </g>
</svg>