<?xml version="1.0" encoding="utf-8"?>
<svg width="16" height="16" fill="currentColor" class="bi bi-patch-question" viewBox="0 0 16 16" xmlns="http://www.w3.org/2000/svg">
  <rect width="16" height="16" style="fill: rgb(255, 80, 86);"/>
  <path d="M 8.037 9.2 C 8.289 9.2 8.415 9.02 8.453 8.73 C 8.483 8.329 8.601 8.118 9.088 7.785 C 9.593 7.428 9.875 6.967 9.875 6.295 C 9.875 5.301 9.185 4.624 8.178 4.624 C 7.413 4.624 6.834 4.994 6.603 5.592 C 6.533 5.756 6.498 5.932 6.5 6.11 C 6.5 6.404 6.652 6.59 6.908 6.59 C 7.112 6.59 7.25 6.479 7.331 6.207 C 7.45 5.763 7.725 5.521 8.137 5.521 C 8.595 5.521 8.91 5.855 8.91 6.334 C 8.91 6.756 8.754 6.998 8.293 7.328 C 7.829 7.653 7.599 8.013 7.599 8.558 L 7.599 8.641 C 7.599 8.962 7.755 9.2 8.037 9.2 Z" style="fill: rgb(255, 255, 255);"/>
  <path d="M 9.705 3.884 L 9.014 3.176 L 9.55 2.653 L 10.017 3.13 L 10.684 3.122 C 11.902 3.108 12.892 4.098 12.878 5.315 L 12.87 5.983 L 13.347 6.449 C 14.217 7.3 14.217 8.7 13.347 9.55 L 12.869 10.017 L 12.878 10.684 C 12.892 11.902 11.902 12.892 10.684 12.878 L 10.017 12.87 L 9.55 13.347 C 8.7 14.217 7.3 14.217 6.449 13.347 L 5.983 12.869 L 5.315 12.878 C 4.098 12.892 3.108 11.902 3.122 10.684 L 3.13 10.017 L 2.653 9.55 C 1.782 8.7 1.782 7.3 2.653 6.449 L 3.13 5.983 L 3.122 5.315 C 3.108 4.098 4.098 3.108 5.315 3.122 L 5.983 3.13 L 6.449 2.653 C 7.3 1.782 8.7 1.782 9.55 2.653 L 9.014 3.176 C 8.458 2.607 7.542 2.607 6.986 3.176 L 6.296 3.884 L 5.306 3.872 C 4.51 3.863 3.863 4.511 3.872 5.306 L 3.884 6.295 L 3.176 6.986 C 2.607 7.542 2.607 8.458 3.176 9.014 L 3.884 9.704 L 3.872 10.694 C 3.863 11.49 4.511 12.137 5.306 12.127 L 6.295 12.115 L 6.986 12.824 C 7.542 13.393 8.458 13.393 9.014 12.824 L 9.704 12.115 L 10.694 12.127 C 11.49 12.136 12.137 11.489 12.127 10.693 L 12.115 9.705 L 12.824 9.014 C 13.393 8.458 13.393 7.542 12.824 6.986 L 12.115 6.296 L 12.127 5.306 C 12.136 4.51 11.489 3.863 10.693 3.872 L 9.705 3.884 Z" style="fill: rgb(255, 255, 255);"/>
  <path d="M 7.25 10.25 C 7.25 9.673 7.876 9.312 8.376 9.6 C 8.608 9.734 8.751 9.982 8.751 10.25 C 8.751 10.827 8.126 11.188 7.626 10.9 C 7.393 10.766 7.25 10.518 7.25 10.25 Z" style="fill: rgb(255, 255, 255);"/>
</svg>