<?xml version="1.0" encoding="utf-8"?>
<svg width="16px" height="16" fill="currentColor" class="bi bi-pencil" viewBox="0 0 16 16" xmlns="http://www.w3.org/2000/svg">
  <rect width="16" height="16" style="fill: rgb(200, 242, 99);" rx="3.5" ry="3.5"/>
  <path d="M 11.109 2.11 C 11.256 1.963 11.494 1.963 11.64 2.11 L 13.89 4.36 C 14.037 4.507 14.037 4.745 13.89 4.891 L 6.39 12.391 C 6.354 12.427 6.312 12.455 6.264 12.473 L 2.515 13.973 C 2.247 14.081 1.963 13.857 2.004 13.572 C 2.008 13.542 2.016 13.513 2.027 13.486 L 3.527 9.736 C 3.546 9.689 3.574 9.646 3.609 9.61 L 11.109 2.11 Z M 10.405 3.876 L 12.125 5.595 L 13.094 4.626 L 11.375 2.906 L 10.405 3.876 Z M 11.594 6.126 L 9.875 4.406 L 5 9.281 L 5 9.5 L 5.375 9.5 C 5.582 9.5 5.75 9.668 5.75 9.875 L 5.75 10.25 L 6.125 10.25 C 6.332 10.25 6.5 10.418 6.5 10.625 L 6.5 11 L 6.72 11 L 11.594 6.126 Z M 4.274 10.007 L 4.194 10.086 L 3.049 12.952 L 5.914 11.806 L 5.994 11.726 C 5.847 11.672 5.75 11.532 5.75 11.375 L 5.75 11 L 5.375 11 C 5.168 11 5 10.832 5 10.625 L 5 10.25 L 4.625 10.25 C 4.469 10.25 4.329 10.153 4.274 10.007 Z" style="fill: rgb(0, 0, 0);"/>
</svg>