<?xml version="1.0" encoding="utf-8"?>
<svg width="16" height="16" fill="currentColor" class="bi bi-quora" viewBox="0 0 16 16" xmlns="http://www.w3.org/2000/svg">
  <rect width="16" height="16" style="fill: rgb(99, 149, 242);" rx="3.5" ry="3.5"/>
  <path d="M 6.486 6.214 C 6.486 7.039 5.593 7.554 4.879 7.142 C 4.547 6.951 4.343 6.597 4.343 6.214 C 4.343 5.389 5.236 4.874 5.95 5.286 C 6.281 5.478 6.486 5.831 6.486 6.214 Z"/>
  <path d="M 3.629 3 C 2.839 3 2.2 3.639 2.2 4.429 L 2.2 11.571 C 2.2 12.36 2.839 13 3.629 13 L 12.2 13 C 12.989 13 13.629 12.36 13.629 11.571 L 13.629 4.429 C 13.629 3.639 12.989 3 12.2 3 L 3.629 3 Z M 12.2 3.714 C 12.594 3.714 12.914 4.034 12.914 4.429 L 12.914 9.071 L 10.216 7.681 C 10.079 7.611 9.913 7.639 9.804 7.747 L 7.154 10.397 L 5.254 9.131 C 5.113 9.037 4.924 9.056 4.804 9.176 L 2.914 10.857 L 2.914 4.429 C 2.914 4.034 3.234 3.714 3.629 3.714 L 12.2 3.714 Z"/>
</svg>