<?xml version="1.0" encoding="utf-8"?>
<svg width="16" height="16" fill="currentColor" class="bi bi-quora" viewBox="0 0 16 16" xmlns="http://www.w3.org/2000/svg">
  <rect width="16" height="16" style="fill: rgb(200, 242, 99);" rx="3.5" ry="3.5"/>
  <path d="M 8.306 10.798 C 7.96 10.117 7.554 9.427 6.761 9.427 C 6.609 9.427 6.459 9.451 6.319 9.517 L 6.05 8.977 C 6.379 8.695 6.909 8.472 7.59 8.472 C 8.651 8.472 9.195 8.983 9.627 9.634 C 9.884 9.078 10.005 8.327 10.005 7.394 C 10.005 5.067 9.277 3.871 7.577 3.871 C 5.902 3.871 5.179 5.067 5.179 7.394 C 5.179 9.709 5.902 10.892 7.579 10.892 C 7.844 10.892 8.085 10.863 8.306 10.798 Z M 8.721 11.61 C 8.349 11.71 7.964 11.762 7.579 11.763 C 5.346 11.763 3.162 9.983 3.162 7.394 C 3.162 4.782 5.346 3 7.577 3 C 9.846 3 12.009 4.768 12.009 7.394 C 12.009 8.854 11.327 10.042 10.336 10.809 C 10.656 11.289 10.986 11.607 11.445 11.607 C 11.946 11.607 12.149 11.219 12.181 10.917 L 12.834 10.917 C 12.871 11.322 12.67 13 10.847 13 C 9.743 13 9.16 12.36 8.722 11.61 L 8.721 11.61 Z"/>
</svg>