<?xml version="1.0" encoding="utf-8"?>
<svg width="16" height="16" fill="currentColor" class="bi bi-translate" viewBox="0 0 16 16" xmlns="http://www.w3.org/2000/svg">
  <rect width="16" height="16" style="fill: rgb(200, 242, 99);" rx="3.5" ry="3.5"/>
  <path d="M 5.409 7.036 L 5.083 8 L 4.25 8 L 5.647 4.25 L 6.61 4.25 L 8 8 L 7.125 8 L 6.799 7.036 L 5.409 7.036 Z M 6.634 6.484 L 6.125 4.967 L 6.088 4.967 L 5.579 6.483 L 6.635 6.483 L 6.634 6.484 Z"/>
  <path d="M 2 3.5 C 2 2.672 2.672 2 3.5 2 L 8.75 2 C 9.578 2 10.25 2.672 10.25 3.5 L 10.25 5.75 L 12.5 5.75 C 13.328 5.75 14 6.422 14 7.25 L 14 12.5 C 14 13.328 13.328 14 12.5 14 L 7.25 14 C 6.422 14 5.75 13.328 5.75 12.5 L 5.75 10.25 L 3.5 10.25 C 2.672 10.25 2 9.578 2 8.75 L 2 3.5 Z M 3.5 2.75 C 3.086 2.75 2.75 3.086 2.75 3.5 L 2.75 8.75 C 2.75 9.164 3.086 9.5 3.5 9.5 L 8.75 9.5 C 9.164 9.5 9.5 9.164 9.5 8.75 L 9.5 3.5 C 9.5 3.086 9.164 2.75 8.75 2.75 L 3.5 2.75 Z M 8.854 10.246 C 8.998 10.472 9.155 10.683 9.326 10.881 C 8.765 11.312 8.071 11.631 7.25 11.85 C 7.384 12.013 7.588 12.326 7.666 12.5 C 8.51 12.231 9.226 11.867 9.831 11.38 C 10.414 11.878 11.135 12.253 12.028 12.484 C 12.128 12.293 12.339 11.979 12.5 11.816 C 11.656 11.626 10.957 11.295 10.385 10.853 C 10.896 10.293 11.301 9.615 11.601 8.785 L 12.5 8.785 L 12.5 8 L 10.25 8 L 10.25 8.785 L 10.824 8.785 C 10.585 9.418 10.269 9.945 9.87 10.383 C 9.76 10.265 9.656 10.142 9.559 10.014 C 9.347 10.149 9.104 10.229 8.854 10.246 Z"/>
</svg>